<?xml version="1.0" encoding="UTF-8" standalone="no"?>
<!DOCTYPE svg PUBLIC "-//W3C//DTD SVG 1.1//EN"
 "http://www.w3.org/Graphics/SVG/1.1/DTD/svg11.dtd">
<!-- Generated by graphviz version 2.42.3 (0)
 -->
<!-- Title: G Pages: 1 -->
<svg width="974pt" height="1013pt"
 viewBox="0.00 0.00 973.50 1013.00" xmlns="http://www.w3.org/2000/svg" xmlns:xlink="http://www.w3.org/1999/xlink">
<g id="graph0" class="graph" transform="scale(1 1) rotate(0) translate(4 1009)">
<title>G</title>
<polygon fill="white" stroke="transparent" points="-4,4 -4,-1009 969.5,-1009 969.5,4 -4,4"/>
<!-- MainWindow -->
<g id="node1" class="node">
<title>MainWindow</title>
<polygon fill="none" stroke="black" points="240,-881.5 240,-1004.5 452,-1004.5 452,-881.5 240,-881.5"/>
<text text-anchor="middle" x="346" y="-994.1" font-family="Bitstream Vera Sans" font-size="8.00">MainWindow</text>
<polyline fill="none" stroke="black" points="240,-987.5 452,-987.5 "/>
<text text-anchor="start" x="248" y="-977.1" font-family="Bitstream Vera Sans" font-size="8.00">&#45; advancingTimeTimer : Timer</text>
<text text-anchor="start" x="248" y="-968.1" font-family="Bitstream Vera Sans" font-size="8.00">&#45; map : Map</text>
<text text-anchor="start" x="248" y="-959.1" font-family="Bitstream Vera Sans" font-size="8.00">&#45; routeManagerWindow : RouteManagerWindow</text>
<text text-anchor="start" x="248" y="-950.1" font-family="Bitstream Vera Sans" font-size="8.00">&#45; stationDatabase : StationDatabase</text>
<polyline fill="none" stroke="black" points="240,-943.5 452,-943.5 "/>
<text text-anchor="start" x="248" y="-933.1" font-family="Bitstream Vera Sans" font-size="8.00">&#45; bottomHBox() : HBox</text>
<text text-anchor="start" x="248" y="-924.1" font-family="Bitstream Vera Sans" font-size="8.00">+ run()</text>
<text text-anchor="start" x="248" y="-915.1" font-family="Bitstream Vera Sans" font-size="8.00">&#45; startAdvancingTimeTimer()</text>
<text text-anchor="start" x="248" y="-906.1" font-family="Bitstream Vera Sans" font-size="8.00">+ startSimulating()</text>
<text text-anchor="start" x="248" y="-897.1" font-family="Bitstream Vera Sans" font-size="8.00">+ start(Stage primaryStage)</text>
<text text-anchor="start" x="248" y="-888.1" font-family="Bitstream Vera Sans" font-size="8.00">+ main(String[] args) (static)</text>
</g>
<!-- Map -->
<g id="node2" class="node">
<title>Map</title>
<polygon fill="none" stroke="black" points="296,-667.5 296,-844.5 636,-844.5 636,-667.5 296,-667.5"/>
<text text-anchor="middle" x="466" y="-834.1" font-family="Bitstream Vera Sans" font-size="8.00">Map</text>
<polyline fill="none" stroke="black" points="296,-827.5 636,-827.5 "/>
<text text-anchor="start" x="304" y="-817.1" font-family="Bitstream Vera Sans" font-size="8.00">&#45; canvas : Canvas</text>
<text text-anchor="start" x="304" y="-808.1" font-family="Bitstream Vera Sans" font-size="8.00">&#45; gc : GraphicsContext</text>
<text text-anchor="start" x="304" y="-799.1" font-family="Bitstream Vera Sans" font-size="8.00">&#45; loadedCountrySvgPath : String</text>
<text text-anchor="start" x="304" y="-790.1" font-family="Bitstream Vera Sans" font-size="8.00">&#45; mouseX : double</text>
<text text-anchor="start" x="304" y="-781.1" font-family="Bitstream Vera Sans" font-size="8.00">&#45; mouseY : double</text>
<text text-anchor="start" x="304" y="-772.1" font-family="Bitstream Vera Sans" font-size="8.00">&#45; objects : ArrayList&lt;MapObject&gt;</text>
<text text-anchor="start" x="304" y="-763.1" font-family="Bitstream Vera Sans" font-size="8.00">&#45; routeManager : RouteManager</text>
<text text-anchor="start" x="304" y="-754.1" font-family="Bitstream Vera Sans" font-size="8.00">&#45; routeTime : RouteTime</text>
<text text-anchor="start" x="304" y="-745.1" font-family="Bitstream Vera Sans" font-size="8.00">&#45; stationDatabase : StationDatabase</text>
<text text-anchor="start" x="304" y="-736.1" font-family="Bitstream Vera Sans" font-size="8.00">&#45; statisticsLogger : StatisticsLogger</text>
<polyline fill="none" stroke="black" points="296,-729.5 636,-729.5 "/>
<text text-anchor="start" x="304" y="-719.1" font-family="Bitstream Vera Sans" font-size="8.00">+ addObjects(StationDatabase stationDatabase,RouteManager routeManager)</text>
<text text-anchor="start" x="304" y="-710.1" font-family="Bitstream Vera Sans" font-size="8.00">+ advanceTime()</text>
<text text-anchor="start" x="304" y="-701.1" font-family="Bitstream Vera Sans" font-size="8.00">&#45; clearMap()</text>
<text text-anchor="start" x="304" y="-692.1" font-family="Bitstream Vera Sans" font-size="8.00">+ clearObjects()</text>
<text text-anchor="start" x="304" y="-683.1" font-family="Bitstream Vera Sans" font-size="8.00">&#45; drawInfoBox()</text>
<text text-anchor="start" x="304" y="-674.1" font-family="Bitstream Vera Sans" font-size="8.00">+ getCanvas() : Canvas</text>
</g>
<!-- MainWindow&#45;&gt;Map -->
<g id="edge19" class="edge">
<title>MainWindow&#45;&gt;Map</title>
<path fill="none" stroke="black" d="M393.9,-868.15C398.94,-860.39 404.09,-852.45 409.21,-844.56"/>
<polygon fill="black" stroke="black" points="393.78,-868.34 393.9,-877.71 385.29,-881.42 385.17,-872.05 393.78,-868.34"/>
<text text-anchor="middle" x="406.99" y="-858.5" font-family="Bitstream Vera Sans" font-size="8.00">1</text>
<text text-anchor="middle" x="387.51" y="-863.68" font-family="Bitstream Vera Sans" font-size="8.00">1</text>
</g>
<!-- RouteManagerWindow -->
<g id="node6" class="node">
<title>RouteManagerWindow</title>
<polygon fill="none" stroke="black" points="138.5,-534.5 138.5,-630.5 311.5,-630.5 311.5,-534.5 138.5,-534.5"/>
<text text-anchor="middle" x="225" y="-620.1" font-family="Bitstream Vera Sans" font-size="8.00">RouteManagerWindow</text>
<polyline fill="none" stroke="black" points="138.5,-613.5 311.5,-613.5 "/>
<text text-anchor="start" x="146.5" y="-603.1" font-family="Bitstream Vera Sans" font-size="8.00">&#45; mainWindow : MainWindow</text>
<text text-anchor="start" x="146.5" y="-594.1" font-family="Bitstream Vera Sans" font-size="8.00">+ routeManager : RouteManager</text>
<text text-anchor="start" x="146.5" y="-585.1" font-family="Bitstream Vera Sans" font-size="8.00">+ stationDatabase : StationDatabase</text>
<polyline fill="none" stroke="black" points="138.5,-578.5 311.5,-578.5 "/>
<text text-anchor="start" x="146.5" y="-568.1" font-family="Bitstream Vera Sans" font-size="8.00">&#45; close()</text>
<text text-anchor="start" x="146.5" y="-559.1" font-family="Bitstream Vera Sans" font-size="8.00">+ getRouteManager() : RouteManager</text>
<text text-anchor="start" x="146.5" y="-550.1" font-family="Bitstream Vera Sans" font-size="8.00">+ getScene() : Scene</text>
<text text-anchor="start" x="146.5" y="-541.1" font-family="Bitstream Vera Sans" font-size="8.00">&#45; showError(String message)</text>
</g>
<!-- MainWindow&#45;&gt;RouteManagerWindow -->
<g id="edge20" class="edge">
<title>MainWindow&#45;&gt;RouteManagerWindow</title>
<path fill="none" stroke="black" d="M297.65,-867.68C293.73,-860.17 290.1,-852.54 287,-845 257.49,-773.14 240.14,-684.14 231.62,-630.69"/>
<polygon fill="black" stroke="black" points="297.7,-867.76 306.01,-872.09 305.21,-881.43 296.9,-877.1 297.7,-867.76"/>
<text text-anchor="middle" x="240.66" y="-641.99" font-family="Bitstream Vera Sans" font-size="8.00">1</text>
<text text-anchor="middle" x="292.3" y="-870.08" font-family="Bitstream Vera Sans" font-size="8.00">1</text>
</g>
<!-- MapObject -->
<g id="node3" class="node">
<title>MapObject</title>
<polygon fill="none" stroke="black" points="582.5,-548 582.5,-617 755.5,-617 755.5,-548 582.5,-548"/>
<text text-anchor="middle" x="669" y="-606.6" font-family="Bitstream Vera Sans" font-size="8.00">MapObject</text>
<polyline fill="none" stroke="black" points="582.5,-600 755.5,-600 "/>
<text text-anchor="start" x="590.5" y="-589.6" font-family="Bitstream Vera Sans" font-size="8.00">+ coordX : double</text>
<text text-anchor="start" x="590.5" y="-580.6" font-family="Bitstream Vera Sans" font-size="8.00">+ coordY : double</text>
<polyline fill="none" stroke="black" points="582.5,-574 755.5,-574 "/>
<text text-anchor="start" x="590.5" y="-563.6" font-family="Bitstream Vera Sans" font-size="8.00">+ draw(GraphicsContext gc) (abstract)</text>
<text text-anchor="start" x="590.5" y="-554.6" font-family="Bitstream Vera Sans" font-size="8.00">+ tick() (abstract)</text>
</g>
<!-- Map&#45;&gt;MapObject -->
<g id="edge8" class="edge">
<title>Map&#45;&gt;MapObject</title>
<path fill="none" stroke="black" d="M581.91,-657.07C598.75,-642.85 615.05,-629.08 628.91,-617.37"/>
<polygon fill="black" stroke="black" points="581.5,-657.42 578.9,-666.43 569.58,-667.49 572.18,-658.49 581.5,-657.42"/>
<text text-anchor="middle" x="622.19" y="-630" font-family="Bitstream Vera Sans" font-size="8.00">0..*</text>
<text text-anchor="middle" x="576.29" y="-651.07" font-family="Bitstream Vera Sans" font-size="8.00">1</text>
</g>
<!-- ObjectPathResourceGetter -->
<g id="node4" class="node">
<title>ObjectPathResourceGetter</title>
<polygon fill="none" stroke="black" points="738.5,-156 738.5,-225 965.5,-225 965.5,-156 738.5,-156"/>
<text text-anchor="middle" x="852" y="-214.6" font-family="Bitstream Vera Sans" font-size="8.00">ObjectPathResourceGetter</text>
<polyline fill="none" stroke="black" points="738.5,-208 965.5,-208 "/>
<text text-anchor="start" x="746.5" y="-197.6" font-family="Bitstream Vera Sans" font-size="8.00">&#45; resourceCache : HashMap&lt;String,String&gt;</text>
<text text-anchor="start" x="746.5" y="-188.6" font-family="Bitstream Vera Sans" font-size="8.00">&#45; instance : ObjectPathResourceGetter (static)</text>
<polyline fill="none" stroke="black" points="738.5,-182 965.5,-182 "/>
<text text-anchor="start" x="746.5" y="-171.6" font-family="Bitstream Vera Sans" font-size="8.00">+ getValue(String key) : String</text>
<text text-anchor="start" x="746.5" y="-162.6" font-family="Bitstream Vera Sans" font-size="8.00">+ getInstance() : ObjectPathResourceGetter (static)</text>
</g>
<!-- Map&#45;&gt;ObjectPathResourceGetter -->
<g id="edge4" class="edge">
<title>Map&#45;&gt;ObjectPathResourceGetter</title>
<path fill="none" stroke="black" stroke-dasharray="5,2" d="M644.6,-713.57C689.71,-695.15 734.06,-668.75 765,-631 864.84,-509.18 861.17,-305.08 855.27,-225.1"/>
<polygon fill="black" stroke="black" points="636.17,-716.92 643.04,-709.83 640.35,-715.26 644.53,-713.6 644.53,-713.6 644.53,-713.6 640.35,-715.26 646.03,-717.36 636.17,-716.92 636.17,-716.92"/>
</g>
<!-- StationDatabase -->
<g id="node11" class="node">
<title>StationDatabase</title>
<polygon fill="none" stroke="black" points="226.5,-329.5 226.5,-443.5 453.5,-443.5 453.5,-329.5 226.5,-329.5"/>
<text text-anchor="middle" x="340" y="-433.1" font-family="Bitstream Vera Sans" font-size="8.00">StationDatabase</text>
<polyline fill="none" stroke="black" points="226.5,-426.5 453.5,-426.5 "/>
<text text-anchor="start" x="234.5" y="-416.1" font-family="Bitstream Vera Sans" font-size="8.00">&#45; stationLinks : ArrayList&lt;StationLink&gt;</text>
<text text-anchor="start" x="234.5" y="-407.1" font-family="Bitstream Vera Sans" font-size="8.00">&#45; stationsById : HashMap&lt;Integer,Station&gt;</text>
<text text-anchor="start" x="234.5" y="-398.1" font-family="Bitstream Vera Sans" font-size="8.00">&#45; stationsByName : HashMap&lt;String,Station&gt;</text>
<polyline fill="none" stroke="black" points="226.5,-391.5 453.5,-391.5 "/>
<text text-anchor="start" x="234.5" y="-381.1" font-family="Bitstream Vera Sans" font-size="8.00">+ findStation(int stationId) : Station</text>
<text text-anchor="start" x="234.5" y="-372.1" font-family="Bitstream Vera Sans" font-size="8.00">+ findStation(String stationName) : Station</text>
<text text-anchor="start" x="234.5" y="-363.1" font-family="Bitstream Vera Sans" font-size="8.00">+ getStationLinks() : ArrayList&lt;StationLink&gt;</text>
<text text-anchor="start" x="234.5" y="-354.1" font-family="Bitstream Vera Sans" font-size="8.00">+ getStationsById() : HashMap&lt;Integer,Station&gt;</text>
<text text-anchor="start" x="234.5" y="-345.1" font-family="Bitstream Vera Sans" font-size="8.00">+ getStationsByName() : HashMap&lt;String,Station&gt;</text>
<text text-anchor="start" x="234.5" y="-336.1" font-family="Bitstream Vera Sans" font-size="8.00">&#45; linkTwoStations(int id1,int id2)</text>
</g>
<!-- Map&#45;&gt;StationDatabase -->
<g id="edge15" class="edge">
<title>Map&#45;&gt;StationDatabase</title>
<path fill="none" stroke="black" d="M370.74,-654.12C366.26,-646.61 362.28,-638.87 359,-631 333.88,-570.73 332.1,-494.85 334.68,-443.96"/>
<polygon fill="none" stroke="black" points="370.84,-654.27 379.43,-658.02 379.27,-667.39 370.68,-663.65 370.84,-654.27"/>
<text text-anchor="middle" x="340.87" y="-456.81" font-family="Bitstream Vera Sans" font-size="8.00">1</text>
<text text-anchor="middle" x="365.74" y="-656.95" font-family="Bitstream Vera Sans" font-size="8.00">1</text>
</g>
<!-- StatisticsLogger -->
<g id="node13" class="node">
<title>StatisticsLogger</title>
<polygon fill="none" stroke="black" points="368,-534.5 368,-630.5 564,-630.5 564,-534.5 368,-534.5"/>
<text text-anchor="middle" x="466" y="-620.1" font-family="Bitstream Vera Sans" font-size="8.00">StatisticsLogger</text>
<polyline fill="none" stroke="black" points="368,-613.5 564,-613.5 "/>
<text text-anchor="start" x="376" y="-603.1" font-family="Bitstream Vera Sans" font-size="8.00">&#45; money : int (static)</text>
<text text-anchor="start" x="376" y="-594.1" font-family="Bitstream Vera Sans" font-size="8.00">&#45; totalCost : long (static)</text>
<text text-anchor="start" x="376" y="-585.1" font-family="Bitstream Vera Sans" font-size="8.00">&#45; totalPassengersTransported : long (static)</text>
<text text-anchor="start" x="376" y="-576.1" font-family="Bitstream Vera Sans" font-size="8.00">&#45; totalProfit : long (static)</text>
<text text-anchor="start" x="376" y="-567.1" font-family="Bitstream Vera Sans" font-size="8.00">&#45; totalTraveledDistance : long (static)</text>
<polyline fill="none" stroke="black" points="368,-560.5 564,-560.5 "/>
<text text-anchor="start" x="376" y="-550.1" font-family="Bitstream Vera Sans" font-size="8.00">+ logArrival(Train train) (static)</text>
<text text-anchor="start" x="376" y="-541.1" font-family="Bitstream Vera Sans" font-size="8.00">+ setMoney(int initialMoneyAmount) (static)</text>
</g>
<!-- Map&#45;&gt;StatisticsLogger -->
<g id="edge18" class="edge">
<title>Map&#45;&gt;StatisticsLogger</title>
<path fill="none" stroke="black" d="M466,-651.8C466,-644.49 466,-637.35 466,-630.61"/>
<polygon fill="black" stroke="black" points="466,-651.89 471.2,-659.69 466,-667.49 460.8,-659.69 466,-651.89"/>
<text text-anchor="middle" x="472.76" y="-643.21" font-family="Bitstream Vera Sans" font-size="8.00">1</text>
<text text-anchor="middle" x="459.24" y="-651.09" font-family="Bitstream Vera Sans" font-size="8.00">1</text>
</g>
<!-- Station -->
<g id="node10" class="node">
<title>Station</title>
<polygon fill="none" stroke="black" points="206.5,-0.5 206.5,-105.5 379.5,-105.5 379.5,-0.5 206.5,-0.5"/>
<text text-anchor="middle" x="293" y="-95.1" font-family="Bitstream Vera Sans" font-size="8.00">Station</text>
<polyline fill="none" stroke="black" points="206.5,-88.5 379.5,-88.5 "/>
<text text-anchor="start" x="214.5" y="-78.1" font-family="Bitstream Vera Sans" font-size="8.00">+ connectedWith : ArrayList&lt;Station&gt;</text>
<text text-anchor="start" x="214.5" y="-69.1" font-family="Bitstream Vera Sans" font-size="8.00">+ name : String</text>
<text text-anchor="start" x="214.5" y="-60.1" font-family="Bitstream Vera Sans" font-size="8.00">+ profitability : double</text>
<text text-anchor="start" x="214.5" y="-51.1" font-family="Bitstream Vera Sans" font-size="8.00">+ stationID : int</text>
<polyline fill="none" stroke="black" points="206.5,-44.5 379.5,-44.5 "/>
<text text-anchor="start" x="214.5" y="-34.1" font-family="Bitstream Vera Sans" font-size="8.00">+ connectTo(Station st)</text>
<text text-anchor="start" x="214.5" y="-25.1" font-family="Bitstream Vera Sans" font-size="8.00">+ draw(GraphicsContext gc)</text>
<text text-anchor="start" x="214.5" y="-16.1" font-family="Bitstream Vera Sans" font-size="8.00">+ getStation() : String</text>
<text text-anchor="start" x="214.5" y="-7.1" font-family="Bitstream Vera Sans" font-size="8.00">+ tick()</text>
</g>
<!-- MapObject&#45;&gt;Station -->
<g id="edge1" class="edge">
<title>MapObject&#45;&gt;Station</title>
<path fill="none" stroke="black" d="M682.62,-532.83C685.25,-521.49 687.61,-509.39 689,-498 698.58,-419.47 740.54,-203.68 691,-142 652.73,-94.34 484.87,-70.93 379.75,-60.75"/>
<polygon fill="none" stroke="black" points="677.45,-531.87 678.95,-547.69 687.64,-534.39 677.45,-531.87"/>
</g>
<!-- StationLink -->
<g id="node12" class="node">
<title>StationLink</title>
<polygon fill="none" stroke="black" points="274.5,-156 274.5,-225 405.5,-225 405.5,-156 274.5,-156"/>
<text text-anchor="middle" x="340" y="-214.6" font-family="Bitstream Vera Sans" font-size="8.00">StationLink</text>
<polyline fill="none" stroke="black" points="274.5,-208 405.5,-208 "/>
<text text-anchor="start" x="282.5" y="-197.6" font-family="Bitstream Vera Sans" font-size="8.00">+ from : Station</text>
<text text-anchor="start" x="282.5" y="-188.6" font-family="Bitstream Vera Sans" font-size="8.00">+ to : Station</text>
<polyline fill="none" stroke="black" points="274.5,-182 405.5,-182 "/>
<text text-anchor="start" x="282.5" y="-171.6" font-family="Bitstream Vera Sans" font-size="8.00">+ draw(GraphicsContext gc)</text>
<text text-anchor="start" x="282.5" y="-162.6" font-family="Bitstream Vera Sans" font-size="8.00">+ tick()</text>
</g>
<!-- MapObject&#45;&gt;StationLink -->
<g id="edge3" class="edge">
<title>MapObject&#45;&gt;StationLink</title>
<path fill="none" stroke="black" d="M587.91,-540.77C550.19,-521.5 512.91,-501.85 510,-498 448.91,-417.21 519.44,-359.1 463,-275 458.16,-267.79 424.46,-245.11 393.55,-225.2"/>
<polygon fill="none" stroke="black" points="586.02,-545.7 601.77,-547.83 590.78,-536.34 586.02,-545.7"/>
</g>
<!-- Train -->
<g id="node14" class="node">
<title>Train</title>
<polygon fill="none" stroke="black" points="518.5,-275.5 518.5,-497.5 679.5,-497.5 679.5,-275.5 518.5,-275.5"/>
<text text-anchor="middle" x="599" y="-487.1" font-family="Bitstream Vera Sans" font-size="8.00">Train</text>
<polyline fill="none" stroke="black" points="518.5,-480.5 679.5,-480.5 "/>
<text text-anchor="start" x="526.5" y="-470.1" font-family="Bitstream Vera Sans" font-size="8.00">+ costPerKM : int</text>
<text text-anchor="start" x="526.5" y="-461.1" font-family="Bitstream Vera Sans" font-size="8.00">&#45; currentStopID : int</text>
<text text-anchor="start" x="526.5" y="-452.1" font-family="Bitstream Vera Sans" font-size="8.00">+ currentTrainRoute : TrainRoute</text>
<text text-anchor="start" x="526.5" y="-443.1" font-family="Bitstream Vera Sans" font-size="8.00">+ linkProgress : double</text>
<text text-anchor="start" x="526.5" y="-434.1" font-family="Bitstream Vera Sans" font-size="8.00">+ name : String</text>
<text text-anchor="start" x="526.5" y="-425.1" font-family="Bitstream Vera Sans" font-size="8.00">+ nextStation : Station</text>
<text text-anchor="start" x="526.5" y="-416.1" font-family="Bitstream Vera Sans" font-size="8.00">+ passengers : int</text>
<text text-anchor="start" x="526.5" y="-407.1" font-family="Bitstream Vera Sans" font-size="8.00">+ previousStation : Station</text>
<text text-anchor="start" x="526.5" y="-398.1" font-family="Bitstream Vera Sans" font-size="8.00">+ profitPerPassenger : double</text>
<text text-anchor="start" x="526.5" y="-389.1" font-family="Bitstream Vera Sans" font-size="8.00">&#45; routeDirection : boolean</text>
<text text-anchor="start" x="526.5" y="-380.1" font-family="Bitstream Vera Sans" font-size="8.00">+ seats : int</text>
<text text-anchor="start" x="526.5" y="-371.1" font-family="Bitstream Vera Sans" font-size="8.00">+ speed : int</text>
<text text-anchor="start" x="526.5" y="-362.1" font-family="Bitstream Vera Sans" font-size="8.00">+ testtime : double</text>
<text text-anchor="start" x="526.5" y="-353.1" font-family="Bitstream Vera Sans" font-size="8.00">+ trainID : int</text>
<polyline fill="none" stroke="black" points="518.5,-346.5 679.5,-346.5 "/>
<text text-anchor="start" x="526.5" y="-336.1" font-family="Bitstream Vera Sans" font-size="8.00">+ draw(GraphicsContext gc)</text>
<text text-anchor="start" x="526.5" y="-327.1" font-family="Bitstream Vera Sans" font-size="8.00">+ drawInfoBox(GraphicsContext gc)</text>
<text text-anchor="start" x="526.5" y="-318.1" font-family="Bitstream Vera Sans" font-size="8.00">+ getTrain() : String</text>
<text text-anchor="start" x="526.5" y="-309.1" font-family="Bitstream Vera Sans" font-size="8.00">&#45; nextRndStop()</text>
<text text-anchor="start" x="526.5" y="-300.1" font-family="Bitstream Vera Sans" font-size="8.00">&#45; nextStop()</text>
<text text-anchor="start" x="526.5" y="-291.1" font-family="Bitstream Vera Sans" font-size="8.00">+ resetRoute(TrainRoute route)</text>
<text text-anchor="start" x="526.5" y="-282.1" font-family="Bitstream Vera Sans" font-size="8.00">+ tick()</text>
</g>
<!-- MapObject&#45;&gt;Train -->
<g id="edge2" class="edge">
<title>MapObject&#45;&gt;Train</title>
<path fill="none" stroke="black" d="M651.64,-533.4C647.65,-522.32 643.24,-510.1 638.72,-497.57"/>
<polygon fill="none" stroke="black" points="646.78,-535.38 656.81,-547.71 656.65,-531.82 646.78,-535.38"/>
</g>
<!-- RouteManager -->
<g id="node5" class="node">
<title>RouteManager</title>
<polygon fill="none" stroke="black" points="0,-343 0,-430 208,-430 208,-343 0,-343"/>
<text text-anchor="middle" x="104" y="-419.6" font-family="Bitstream Vera Sans" font-size="8.00">RouteManager</text>
<polyline fill="none" stroke="black" points="0,-413 208,-413 "/>
<text text-anchor="start" x="8" y="-402.6" font-family="Bitstream Vera Sans" font-size="8.00">+ routes : HashMap&lt;Integer,TrainRoute&gt;</text>
<text text-anchor="start" x="8" y="-393.6" font-family="Bitstream Vera Sans" font-size="8.00">&#45; trains : HashMap&lt;Integer,Train&gt;</text>
<polyline fill="none" stroke="black" points="0,-387 208,-387 "/>
<text text-anchor="start" x="8" y="-376.6" font-family="Bitstream Vera Sans" font-size="8.00">+ getRouteByID(int id) : TrainRoute</text>
<text text-anchor="start" x="8" y="-367.6" font-family="Bitstream Vera Sans" font-size="8.00">+ getRoutes() : HashMap&lt;Integer,TrainRoute&gt;</text>
<text text-anchor="start" x="8" y="-358.6" font-family="Bitstream Vera Sans" font-size="8.00">+ getTrains() : HashMap&lt;Integer,Train&gt;</text>
<text text-anchor="start" x="8" y="-349.6" font-family="Bitstream Vera Sans" font-size="8.00">+ getTrainsArrayList() : ArrayList&lt;Train&gt;</text>
</g>
<!-- TrainRoute -->
<g id="node15" class="node">
<title>TrainRoute</title>
<polygon fill="none" stroke="black" points="46,-151.5 46,-229.5 200,-229.5 200,-151.5 46,-151.5"/>
<text text-anchor="middle" x="123" y="-219.1" font-family="Bitstream Vera Sans" font-size="8.00">TrainRoute</text>
<polyline fill="none" stroke="black" points="46,-212.5 200,-212.5 "/>
<text text-anchor="start" x="54" y="-202.1" font-family="Bitstream Vera Sans" font-size="8.00">+ routeID : int</text>
<text text-anchor="start" x="54" y="-193.1" font-family="Bitstream Vera Sans" font-size="8.00">&#45; stops : ArrayList&lt;Station&gt;</text>
<text text-anchor="start" x="54" y="-184.1" font-family="Bitstream Vera Sans" font-size="8.00">+ stopsByIDSize : int</text>
<polyline fill="none" stroke="black" points="46,-177.5 200,-177.5 "/>
<text text-anchor="start" x="54" y="-167.1" font-family="Bitstream Vera Sans" font-size="8.00">+ getStop(int stopID) : Station</text>
<text text-anchor="start" x="54" y="-158.1" font-family="Bitstream Vera Sans" font-size="8.00">+ getStops() : ArrayList&lt;Station&gt;</text>
</g>
<!-- RouteManager&#45;&gt;TrainRoute -->
<g id="edge9" class="edge">
<title>RouteManager&#45;&gt;TrainRoute</title>
<path fill="none" stroke="black" d="M109.72,-327.1C112.81,-295.54 116.54,-257.46 119.26,-229.7"/>
<polygon fill="none" stroke="black" points="109.69,-327.4 114.11,-335.67 108.17,-342.93 103.75,-334.66 109.69,-327.4"/>
<text text-anchor="middle" x="124.57" y="-242.89" font-family="Bitstream Vera Sans" font-size="8.00">0..*</text>
<text text-anchor="middle" x="102.85" y="-325.93" font-family="Bitstream Vera Sans" font-size="8.00">1</text>
</g>
<!-- RouteManagerWindow&#45;&gt;RouteManager -->
<g id="edge16" class="edge">
<title>RouteManagerWindow&#45;&gt;RouteManager</title>
<path fill="none" stroke="black" d="M186.97,-520.53C168.66,-491.17 147.15,-456.68 130.61,-430.17"/>
<polygon fill="none" stroke="black" points="187.14,-520.81 195.68,-524.67 195.4,-534.04 186.86,-530.18 187.14,-520.81"/>
<text text-anchor="middle" x="144.03" y="-437" font-family="Bitstream Vera Sans" font-size="8.00">1</text>
<text text-anchor="middle" x="181.99" y="-523.42" font-family="Bitstream Vera Sans" font-size="8.00">1</text>
</g>
<!-- RouteManagerWindow&#45;&gt;StationDatabase -->
<g id="edge17" class="edge">
<title>RouteManagerWindow&#45;&gt;StationDatabase</title>
<path fill="none" stroke="black" d="M261.19,-520.45C275.73,-495.92 292.4,-467.81 306.64,-443.77"/>
<polygon fill="none" stroke="black" points="261.09,-520.62 261.58,-529.98 253.13,-534.04 252.64,-524.68 261.09,-520.62"/>
<text text-anchor="middle" x="305.06" y="-457.8" font-family="Bitstream Vera Sans" font-size="8.00">1</text>
<text text-anchor="middle" x="254.71" y="-516.22" font-family="Bitstream Vera Sans" font-size="8.00">1</text>
</g>
<!-- RouteStop -->
<g id="node7" class="node">
<title>RouteStop</title>
<polygon fill="none" stroke="black" points="470.5,-917 470.5,-969 593.5,-969 593.5,-917 470.5,-917"/>
<text text-anchor="middle" x="532" y="-958.6" font-family="Bitstream Vera Sans" font-size="8.00">RouteStop</text>
<polyline fill="none" stroke="black" points="470.5,-952 593.5,-952 "/>
<text text-anchor="start" x="478.5" y="-941.6" font-family="Bitstream Vera Sans" font-size="8.00">+ arriveTime : RouteTime</text>
<text text-anchor="start" x="478.5" y="-932.6" font-family="Bitstream Vera Sans" font-size="8.00">+ city : Station</text>
<text text-anchor="start" x="478.5" y="-923.6" font-family="Bitstream Vera Sans" font-size="8.00">+ departTime : RouteTime</text>
</g>
<!-- RouteTime -->
<g id="node8" class="node">
<title>RouteTime</title>
<polygon fill="none" stroke="black" points="612,-917.5 612,-968.5 786,-968.5 786,-917.5 612,-917.5"/>
<text text-anchor="middle" x="699" y="-958.1" font-family="Bitstream Vera Sans" font-size="8.00">RouteTime</text>
<polyline fill="none" stroke="black" points="612,-951.5 786,-951.5 "/>
<text text-anchor="start" x="620" y="-941.1" font-family="Bitstream Vera Sans" font-size="8.00">+ secondsSinceMidnight : long (static)</text>
<polyline fill="none" stroke="black" points="612,-934.5 786,-934.5 "/>
<text text-anchor="start" x="620" y="-924.1" font-family="Bitstream Vera Sans" font-size="8.00">+ getTime() : long (static)</text>
</g>
<!-- Settings -->
<g id="node9" class="node">
<title>Settings</title>
<polygon fill="none" stroke="black" points="424,-142.5 424,-238.5 682,-238.5 682,-142.5 424,-142.5"/>
<text text-anchor="middle" x="553" y="-228.1" font-family="Bitstream Vera Sans" font-size="8.00">Settings</text>
<polyline fill="none" stroke="black" points="424,-221.5 682,-221.5 "/>
<text text-anchor="start" x="432" y="-211.1" font-family="Bitstream Vera Sans" font-size="8.00">&#45; initialMoneyAmount : int (static)</text>
<text text-anchor="start" x="432" y="-202.1" font-family="Bitstream Vera Sans" font-size="8.00">&#45; simulationSpeedMultiplier : int (static)</text>
<text text-anchor="start" x="432" y="-193.1" font-family="Bitstream Vera Sans" font-size="8.00">+ useRouteManager : boolean (static)</text>
<text text-anchor="start" x="432" y="-184.1" font-family="Bitstream Vera Sans" font-size="8.00">+ vCoefficient : Double (static)</text>
<polyline fill="none" stroke="black" points="424,-177.5 682,-177.5 "/>
<text text-anchor="start" x="432" y="-167.1" font-family="Bitstream Vera Sans" font-size="8.00">+ getSimulationSpeedMultiplier() : int (static)</text>
<text text-anchor="start" x="432" y="-158.1" font-family="Bitstream Vera Sans" font-size="8.00">+ setInitialMoneyAmount(int amount) (static)</text>
<text text-anchor="start" x="432" y="-149.1" font-family="Bitstream Vera Sans" font-size="8.00">+ setSimulationSpeedMultiplier(int speedMultiplier) (static)</text>
</g>
<!-- Station&#45;&gt;Station -->
<g id="edge7" class="edge">
<title>Station&#45;&gt;Station</title>
<path fill="none" stroke="black" d="M392.97,-66.24C395.86,-62.62 397.5,-58.21 397.5,-53 397.5,-42.24 390.53,-34.89 379.89,-30.94"/>
<polygon fill="none" stroke="black" points="392.82,-66.34 389.26,-75.01 379.89,-75.06 383.44,-66.39 392.82,-66.34"/>
<text text-anchor="middle" x="395.87" y="-28.39" font-family="Bitstream Vera Sans" font-size="8.00">0..*</text>
<text text-anchor="middle" x="388.13" y="-59.45" font-family="Bitstream Vera Sans" font-size="8.00">1</text>
</g>
<!-- StationDatabase&#45;&gt;Station -->
<g id="edge11" class="edge">
<title>StationDatabase&#45;&gt;Station</title>
<path fill="none" stroke="black" d="M295.65,-315.44C283.19,-292.05 271.32,-265.23 265,-239 254.9,-197.09 258.39,-184.6 265,-142 266.84,-130.12 270.01,-117.64 273.57,-105.95"/>
<polygon fill="none" stroke="black" points="295.68,-315.51 304,-319.82 303.22,-329.16 294.9,-324.85 295.68,-315.51"/>
<text text-anchor="middle" x="275.9" y="-119.88" font-family="Bitstream Vera Sans" font-size="8.00">0..*</text>
<text text-anchor="middle" x="290.29" y="-317.84" font-family="Bitstream Vera Sans" font-size="8.00">1</text>
</g>
<!-- StationDatabase&#45;&gt;StationLink -->
<g id="edge12" class="edge">
<title>StationDatabase&#45;&gt;StationLink</title>
<path fill="none" stroke="black" d="M340,-313.45C340,-283.13 340,-249.32 340,-225.01"/>
<polygon fill="none" stroke="black" points="340,-313.79 345.2,-321.59 340,-329.39 334.8,-321.59 340,-313.79"/>
<text text-anchor="middle" x="346.76" y="-237.61" font-family="Bitstream Vera Sans" font-size="8.00">0..*</text>
<text text-anchor="middle" x="333.24" y="-312.99" font-family="Bitstream Vera Sans" font-size="8.00">1</text>
</g>
<!-- StationLink&#45;&gt;Station -->
<g id="edge13" class="edge">
<title>StationLink&#45;&gt;Station</title>
<path fill="none" stroke="black" d="M323.08,-140.72C319.12,-129.31 314.89,-117.12 310.9,-105.59"/>
<polygon fill="none" stroke="black" points="323.15,-140.92 330.62,-146.58 328.26,-155.66 320.79,-149.99 323.15,-140.92"/>
<text text-anchor="middle" x="322.04" y="-115.18" font-family="Bitstream Vera Sans" font-size="8.00">2</text>
<text text-anchor="middle" x="317.12" y="-142.27" font-family="Bitstream Vera Sans" font-size="8.00">1</text>
</g>
<!-- Train&#45;&gt;ObjectPathResourceGetter -->
<g id="edge5" class="edge">
<title>Train&#45;&gt;ObjectPathResourceGetter</title>
<path fill="none" stroke="black" stroke-dasharray="5,2" d="M687.04,-317.99C727.93,-286.63 774.75,-250.74 808.03,-225.21"/>
<polygon fill="black" stroke="black" points="679.75,-323.58 684.42,-314.89 683.32,-320.85 686.89,-318.11 686.89,-318.11 686.89,-318.11 683.32,-320.85 689.35,-321.32 679.75,-323.58 679.75,-323.58"/>
</g>
<!-- Train&#45;&gt;Settings -->
<g id="edge6" class="edge">
<title>Train&#45;&gt;Settings</title>
<path fill="none" stroke="black" stroke-dasharray="5,2" d="M570.78,-266.51C568.49,-256.83 566.27,-247.47 564.22,-238.83"/>
<polygon fill="black" stroke="black" points="572.91,-275.46 566.89,-267.64 571.87,-271.08 570.83,-266.71 570.83,-266.71 570.83,-266.71 571.87,-271.08 574.77,-265.77 572.91,-275.46 572.91,-275.46"/>
</g>
<!-- Train&#45;&gt;StationLink -->
<g id="edge14" class="edge">
<title>Train&#45;&gt;StationLink</title>
<path fill="none" stroke="black" d="M506.41,-280.53C503.96,-278.62 501.49,-276.78 499,-275 465.94,-251.4 450.94,-257.93 415,-239 406.95,-234.76 398.63,-229.96 390.59,-225.07"/>
<polygon fill="none" stroke="black" points="506.46,-280.58 515.79,-281.55 518.47,-290.53 509.15,-289.56 506.46,-280.58"/>
<text text-anchor="middle" x="406.5" y="-224.88" font-family="Bitstream Vera Sans" font-size="8.00">1</text>
<text text-anchor="middle" x="502.99" y="-284.58" font-family="Bitstream Vera Sans" font-size="8.00">1</text>
</g>
<!-- TrainRoute&#45;&gt;Station -->
<g id="edge10" class="edge">
<title>TrainRoute&#45;&gt;Station</title>
<path fill="none" stroke="black" d="M183.26,-141.47C197.79,-129.89 213.38,-117.46 228.11,-105.72"/>
<polygon fill="none" stroke="black" points="183.01,-141.67 180.15,-150.6 170.81,-151.4 173.67,-142.47 183.01,-141.67"/>
<text text-anchor="middle" x="220.98" y="-118.15" font-family="Bitstream Vera Sans" font-size="8.00">0..*</text>
<text text-anchor="middle" x="177.93" y="-135.17" font-family="Bitstream Vera Sans" font-size="8.00">1</text>
</g>
</g>
</svg>
