<?xml version="1.0" encoding="UTF-8" standalone="no"?>
<!DOCTYPE svg PUBLIC "-//W3C//DTD SVG 1.1//EN"
 "http://www.w3.org/Graphics/SVG/1.1/DTD/svg11.dtd">
<!-- Generated by graphviz version 2.42.3 (0)
 -->
<!-- Title: G Pages: 1 -->
<svg width="675pt" height="644pt"
 viewBox="0.00 0.00 674.56 644.00" xmlns="http://www.w3.org/2000/svg" xmlns:xlink="http://www.w3.org/1999/xlink">
<g id="graph0" class="graph" transform="scale(1 1) rotate(0) translate(4 640)">
<title>G</title>
<polygon fill="white" stroke="transparent" points="-4,4 -4,-640 670.56,-640 670.56,4 -4,4"/>
<!-- MainWindow -->
<g id="node1" class="node">
<title>MainWindow</title>
<polygon fill="none" stroke="black" points="295.56,-566.5 295.56,-635.5 509.56,-635.5 509.56,-566.5 295.56,-566.5"/>
<text text-anchor="middle" x="402.56" y="-625.1" font-family="Bitstream Vera Sans" font-size="8.00">MainWindow</text>
<polyline fill="none" stroke="black" points="295.56,-618.5 509.56,-618.5 "/>
<text text-anchor="start" x="303.56" y="-608.1" font-family="Bitstream Vera Sans" font-size="8.00">&#45; map : Map</text>
<text text-anchor="start" x="303.56" y="-599.1" font-family="Bitstream Vera Sans" font-size="8.00"> &#45; routeManagerWindow : RouteManagerWindow</text>
<polyline fill="none" stroke="black" points="295.56,-592.5 509.56,-592.5 "/>
<text text-anchor="start" x="303.56" y="-582.1" font-family="Bitstream Vera Sans" font-size="8.00">+ main()</text>
<text text-anchor="start" x="303.56" y="-573.1" font-family="Bitstream Vera Sans" font-size="8.00"> &#45; showRouteManagerWindow()</text>
</g>
<!-- RouteManagerWindow -->
<g id="node2" class="node">
<title>RouteManagerWindow</title>
<polygon fill="none" stroke="black" points="409.56,-447 409.56,-507 587.56,-507 587.56,-447 409.56,-447"/>
<text text-anchor="middle" x="498.56" y="-496.6" font-family="Bitstream Vera Sans" font-size="8.00">RouteManagerWindow</text>
<polyline fill="none" stroke="black" points="409.56,-490 587.56,-490 "/>
<text text-anchor="start" x="417.56" y="-479.6" font-family="Bitstream Vera Sans" font-size="8.00">&#45; routeManager : RouteManager</text>
<text text-anchor="start" x="417.56" y="-470.6" font-family="Bitstream Vera Sans" font-size="8.00"> &#45; stationsDatabase : StationsDatabase</text>
<polyline fill="none" stroke="black" points="409.56,-464 587.56,-464 "/>
<text text-anchor="start" x="417.56" y="-453.6" font-family="Bitstream Vera Sans" font-size="8.00">+ open()</text>
</g>
<!-- MainWindow&#45;&gt;RouteManagerWindow -->
<g id="edge18" class="edge">
<title>MainWindow&#45;&gt;RouteManagerWindow</title>
<path fill="none" stroke="black" d="M429.05,-566.34C441.89,-550.03 457.31,-530.42 470.37,-513.83"/>
<polygon fill="black" stroke="black" points="475.43,-507.4 473.31,-515.91 472.95,-510.54 470.48,-513.69 470.48,-513.69 470.48,-513.69 472.95,-510.54 467.65,-511.46 475.43,-507.4 475.43,-507.4"/>
<text text-anchor="middle" x="472" y="-520.1" font-family="Bitstream Vera Sans" font-size="8.00">1</text>
<text text-anchor="middle" x="432.47" y="-549.84" font-family="Bitstream Vera Sans" font-size="8.00">1</text>
</g>
<!-- Map -->
<g id="node3" class="node">
<title>Map</title>
<polygon fill="none" stroke="black" points="223.06,-424.5 223.06,-529.5 392.06,-529.5 392.06,-424.5 223.06,-424.5"/>
<text text-anchor="middle" x="307.56" y="-519.1" font-family="Bitstream Vera Sans" font-size="8.00">Map</text>
<polyline fill="none" stroke="black" points="223.06,-512.5 392.06,-512.5 "/>
<text text-anchor="start" x="231.06" y="-502.1" font-family="Bitstream Vera Sans" font-size="8.00">&#45; objects : ArrayList&lt;MapObject&gt;</text>
<text text-anchor="start" x="231.06" y="-493.1" font-family="Bitstream Vera Sans" font-size="8.00"> &#45; stationDatabase : StationDatabase</text>
<text text-anchor="start" x="231.06" y="-484.1" font-family="Bitstream Vera Sans" font-size="8.00"> &#45; routeManager : RouteManager</text>
<text text-anchor="start" x="231.06" y="-475.1" font-family="Bitstream Vera Sans" font-size="8.00"> &#45; currentTime : RouteTime</text>
<text text-anchor="start" x="231.06" y="-466.1" font-family="Bitstream Vera Sans" font-size="8.00"> &#45; statisticsLogger : StatisticsLogger</text>
<polyline fill="none" stroke="black" points="223.06,-459.5 392.06,-459.5 "/>
<text text-anchor="start" x="231.06" y="-449.1" font-family="Bitstream Vera Sans" font-size="8.00">+ draw()</text>
<text text-anchor="start" x="231.06" y="-440.1" font-family="Bitstream Vera Sans" font-size="8.00"> + fillStationsFromDatabase()</text>
<text text-anchor="start" x="231.06" y="-431.1" font-family="Bitstream Vera Sans" font-size="8.00"> + advanceTime()</text>
</g>
<!-- MainWindow&#45;&gt;Map -->
<g id="edge15" class="edge">
<title>MainWindow&#45;&gt;Map</title>
<path fill="none" stroke="black" d="M376.35,-566.34C369.08,-556.99 360.96,-546.57 352.92,-536.25"/>
<polygon fill="black" stroke="black" points="347.94,-529.85 355.69,-533.95 350.4,-533.01 352.85,-536.16 352.85,-536.16 352.85,-536.16 350.4,-533.01 350.01,-538.37 347.94,-529.85 347.94,-529.85"/>
<text text-anchor="middle" x="361.29" y="-534.78" font-family="Bitstream Vera Sans" font-size="8.00">1</text>
<text text-anchor="middle" x="363" y="-557.61" font-family="Bitstream Vera Sans" font-size="8.00">1</text>
</g>
<!-- RouteManager -->
<g id="node8" class="node">
<title>RouteManager</title>
<polygon fill="none" stroke="black" points="496.56,-327.5 496.56,-387.5 666.56,-387.5 666.56,-327.5 496.56,-327.5"/>
<text text-anchor="middle" x="581.56" y="-377.1" font-family="Bitstream Vera Sans" font-size="8.00">RouteManager</text>
<polyline fill="none" stroke="black" points="496.56,-370.5 666.56,-370.5 "/>
<text text-anchor="start" x="504.56" y="-360.1" font-family="Bitstream Vera Sans" font-size="8.00">+ routes : ArrayList&lt;TrainRoute&gt;</text>
<polyline fill="none" stroke="black" points="496.56,-353.5 666.56,-353.5 "/>
<text text-anchor="start" x="504.56" y="-343.1" font-family="Bitstream Vera Sans" font-size="8.00">+ getRouteForTrain(String trainName)</text>
<text text-anchor="start" x="504.56" y="-334.1" font-family="Bitstream Vera Sans" font-size="8.00"> + getRouteForStation(Station c)</text>
</g>
<!-- RouteManagerWindow&#45;&gt;RouteManager -->
<g id="edge19" class="edge">
<title>RouteManagerWindow&#45;&gt;RouteManager</title>
<path fill="none" stroke="black" d="M519.08,-446.96C530.35,-431 544.43,-411.07 556.37,-394.17"/>
<polygon fill="black" stroke="black" points="560.99,-387.62 559.32,-396.23 558.69,-390.89 556.38,-394.15 556.38,-394.15 556.38,-394.15 558.69,-390.89 553.44,-392.08 560.99,-387.62 560.99,-387.62"/>
<text text-anchor="middle" x="558.33" y="-400.48" font-family="Bitstream Vera Sans" font-size="8.00">1</text>
<text text-anchor="middle" x="521.75" y="-430.29" font-family="Bitstream Vera Sans" font-size="8.00">1</text>
</g>
<!-- StationDatabase -->
<g id="node12" class="node">
<title>StationDatabase</title>
<polygon fill="none" stroke="black" points="220.56,-221.5 220.56,-281.5 402.56,-281.5 402.56,-221.5 220.56,-221.5"/>
<text text-anchor="middle" x="311.56" y="-271.1" font-family="Bitstream Vera Sans" font-size="8.00">StationDatabase</text>
<polyline fill="none" stroke="black" points="220.56,-264.5 402.56,-264.5 "/>
<text text-anchor="start" x="228.56" y="-254.1" font-family="Bitstream Vera Sans" font-size="8.00">+ stations : ArrayList&lt;Station&gt;</text>
<text text-anchor="start" x="228.56" y="-245.1" font-family="Bitstream Vera Sans" font-size="8.00"> + stationLinks : ArrayLink&lt;StationLink&gt;</text>
<polyline fill="none" stroke="black" points="220.56,-238.5 402.56,-238.5 "/>
<text text-anchor="start" x="228.56" y="-228.1" font-family="Bitstream Vera Sans" font-size="8.00">+ loadFromFile()</text>
</g>
<!-- RouteManagerWindow&#45;&gt;StationDatabase -->
<g id="edge20" class="edge">
<title>RouteManagerWindow&#45;&gt;StationDatabase</title>
<path fill="none" stroke="black" d="M485.89,-446.87C471.12,-415.09 444.5,-363.85 411.56,-327 398.18,-312.03 381.37,-298.13 365.37,-286.49"/>
<polygon fill="black" stroke="black" points="358.57,-281.64 367.18,-283.35 361.83,-283.96 365.09,-286.28 365.09,-286.28 365.09,-286.28 361.83,-283.96 362.99,-289.22 358.57,-281.64 358.57,-281.64"/>
<text text-anchor="middle" x="373.32" y="-282.47" font-family="Bitstream Vera Sans" font-size="8.00">1</text>
<text text-anchor="middle" x="474.34" y="-435.4" font-family="Bitstream Vera Sans" font-size="8.00">1</text>
</g>
<!-- MapObject -->
<g id="node4" class="node">
<title>MapObject</title>
<polygon fill="none" stroke="black" points="26.56,-327.5 26.56,-387.5 120.56,-387.5 120.56,-327.5 26.56,-327.5"/>
<text text-anchor="middle" x="73.56" y="-377.1" font-family="Bitstream Vera Sans" font-size="8.00">MapObject</text>
<polyline fill="none" stroke="black" points="26.56,-370.5 120.56,-370.5 "/>
<text text-anchor="start" x="34.56" y="-360.1" font-family="Bitstream Vera Sans" font-size="8.00">+ coordX : float</text>
<text text-anchor="start" x="34.56" y="-351.1" font-family="Bitstream Vera Sans" font-size="8.00"> + coordY : float</text>
<polyline fill="none" stroke="black" points="26.56,-344.5 120.56,-344.5 "/>
<text text-anchor="start" x="34.56" y="-334.1" font-family="Bitstream Vera Sans" font-size="8.00">+ draw() (abstract)</text>
</g>
<!-- Map&#45;&gt;MapObject -->
<g id="edge5" class="edge">
<title>Map&#45;&gt;MapObject</title>
<path fill="none" stroke="black" d="M222.75,-433.41C191.18,-417.56 156.21,-400 128.06,-385.87"/>
<polygon fill="black" stroke="black" points="120.69,-382.16 129.46,-382.54 124.27,-383.96 127.84,-385.75 127.84,-385.75 127.84,-385.75 124.27,-383.96 126.23,-388.97 120.69,-382.16 120.69,-382.16"/>
<text text-anchor="middle" x="135.69" y="-380.7" font-family="Bitstream Vera Sans" font-size="8.00">0..*</text>
<text text-anchor="middle" x="207.76" y="-431.08" font-family="Bitstream Vera Sans" font-size="8.00">1</text>
</g>
<!-- Map&#45;&gt;RouteManager -->
<g id="edge16" class="edge">
<title>Map&#45;&gt;RouteManager</title>
<path fill="none" stroke="black" d="M392.16,-427.95C394.98,-426.59 397.79,-425.27 400.56,-424 428.61,-411.19 459.94,-399.11 488.56,-388.89"/>
<polygon fill="black" stroke="black" points="496.16,-386.19 489.82,-392.26 492.39,-387.53 488.62,-388.87 488.62,-388.87 488.62,-388.87 492.39,-387.53 487.42,-385.47 496.16,-386.19 496.16,-386.19"/>
<text text-anchor="middle" x="485.46" y="-394.81" font-family="Bitstream Vera Sans" font-size="8.00">1</text>
<text text-anchor="middle" x="401.66" y="-414.44" font-family="Bitstream Vera Sans" font-size="8.00">1</text>
</g>
<!-- RouteTime -->
<g id="node11" class="node">
<title>RouteTime</title>
<polygon fill="none" stroke="black" points="407.56,-0.5 407.56,-69.5 543.56,-69.5 543.56,-0.5 407.56,-0.5"/>
<text text-anchor="middle" x="475.56" y="-59.1" font-family="Bitstream Vera Sans" font-size="8.00">RouteTime</text>
<polyline fill="none" stroke="black" points="407.56,-52.5 543.56,-52.5 "/>
<text text-anchor="start" x="415.56" y="-42.1" font-family="Bitstream Vera Sans" font-size="8.00">+ secondsSinceMidnight : int</text>
<polyline fill="none" stroke="black" points="407.56,-35.5 543.56,-35.5 "/>
<text text-anchor="start" x="415.56" y="-25.1" font-family="Bitstream Vera Sans" font-size="8.00">+ getMinutes()</text>
<text text-anchor="start" x="415.56" y="-16.1" font-family="Bitstream Vera Sans" font-size="8.00"> + getHours()</text>
<text text-anchor="start" x="415.56" y="-7.1" font-family="Bitstream Vera Sans" font-size="8.00"> + set(int hours, int minutes)</text>
</g>
<!-- Map&#45;&gt;RouteTime -->
<g id="edge17" class="edge">
<title>Map&#45;&gt;RouteTime</title>
<path fill="none" stroke="black" d="M382,-424.37C393.38,-413.53 403.87,-401.31 411.56,-388 441.84,-335.62 463.1,-159.12 471.53,-77.74"/>
<polygon fill="black" stroke="black" points="472.35,-69.7 475.12,-78.03 471.95,-73.68 471.54,-77.66 471.54,-77.66 471.54,-77.66 471.95,-73.68 467.96,-77.29 472.35,-69.7 472.35,-69.7"/>
<text text-anchor="middle" x="477.28" y="-81.97" font-family="Bitstream Vera Sans" font-size="8.00">1</text>
<text text-anchor="middle" x="387.33" y="-408.44" font-family="Bitstream Vera Sans" font-size="8.00">1</text>
</g>
<!-- Map&#45;&gt;StationDatabase -->
<g id="edge14" class="edge">
<title>Map&#45;&gt;StationDatabase</title>
<path fill="none" stroke="black" d="M230.05,-424.41C219.31,-413.71 209.83,-401.52 203.56,-388 192.16,-363.41 190.96,-351 203.56,-327 212.15,-310.65 226.13,-297.18 241.23,-286.41"/>
<polygon fill="black" stroke="black" points="248.23,-281.65 243.64,-289.13 244.92,-283.9 241.61,-286.15 241.61,-286.15 241.61,-286.15 244.92,-283.9 239.59,-283.17 248.23,-281.65 248.23,-281.65"/>
<text text-anchor="middle" x="240.55" y="-292.64" font-family="Bitstream Vera Sans" font-size="8.00">1</text>
<text text-anchor="middle" x="216.01" y="-417.22" font-family="Bitstream Vera Sans" font-size="8.00">1</text>
</g>
<!-- StatisticsLogger -->
<g id="node13" class="node">
<title>StatisticsLogger</title>
<polygon fill="none" stroke="black" points="213.06,-327.5 213.06,-387.5 402.06,-387.5 402.06,-327.5 213.06,-327.5"/>
<text text-anchor="middle" x="307.56" y="-377.1" font-family="Bitstream Vera Sans" font-size="8.00">StatisticsLogger</text>
<polyline fill="none" stroke="black" points="213.06,-370.5 402.06,-370.5 "/>
<text text-anchor="middle" x="307.56" y="-360.1" font-family="Bitstream Vera Sans" font-size="8.00"> </text>
<polyline fill="none" stroke="black" points="213.06,-353.5 402.06,-353.5 "/>
<text text-anchor="start" x="221.06" y="-343.1" font-family="Bitstream Vera Sans" font-size="8.00">+ logArrival(RouteTime, Train, Station)</text>
<text text-anchor="start" x="221.06" y="-334.1" font-family="Bitstream Vera Sans" font-size="8.00"> + logDeparture(RouteTime, Train, Station)</text>
</g>
<!-- Map&#45;&gt;StatisticsLogger -->
<g id="edge13" class="edge">
<title>Map&#45;&gt;StatisticsLogger</title>
<path fill="none" stroke="black" d="M307.56,-424.46C307.56,-414.83 307.56,-404.94 307.56,-395.84"/>
<polygon fill="black" stroke="black" points="307.56,-387.74 311.16,-395.74 307.56,-391.74 307.56,-395.74 307.56,-395.74 307.56,-395.74 307.56,-391.74 303.96,-395.74 307.56,-387.74 307.56,-387.74"/>
<text text-anchor="middle" x="313.9" y="-399.43" font-family="Bitstream Vera Sans" font-size="8.00">1</text>
<text text-anchor="middle" x="301.22" y="-408.97" font-family="Bitstream Vera Sans" font-size="8.00">1</text>
</g>
<!-- Station -->
<g id="node5" class="node">
<title>Station</title>
<polygon fill="none" stroke="black" points="42.06,-0.5 42.06,-69.5 235.06,-69.5 235.06,-0.5 42.06,-0.5"/>
<text text-anchor="middle" x="138.56" y="-59.1" font-family="Bitstream Vera Sans" font-size="8.00">Station</text>
<polyline fill="none" stroke="black" points="42.06,-52.5 235.06,-52.5 "/>
<text text-anchor="start" x="50.06" y="-42.1" font-family="Bitstream Vera Sans" font-size="8.00">+ name : String</text>
<text text-anchor="start" x="50.06" y="-33.1" font-family="Bitstream Vera Sans" font-size="8.00"> + profitablity : float</text>
<text text-anchor="start" x="50.06" y="-24.1" font-family="Bitstream Vera Sans" font-size="8.00"> + connectingStations : ArrayList&lt;Station&gt;</text>
<polyline fill="none" stroke="black" points="42.06,-17.5 235.06,-17.5 "/>
<text text-anchor="start" x="50.06" y="-7.1" font-family="Bitstream Vera Sans" font-size="8.00">+ draw()</text>
</g>
<!-- MapObject&#45;&gt;Station -->
<g id="edge1" class="edge">
<title>MapObject:sw&#45;&gt;Station</title>
<path fill="none" stroke="black" d="M16.77,-315.53C-36.43,-241.74 53.54,-126.17 105.57,-69.55"/>
<polygon fill="none" stroke="black" points="12.83,-319 26.56,-327 20.81,-312.18 12.83,-319"/>
</g>
<!-- Train -->
<g id="node6" class="node">
<title>Train</title>
<polygon fill="none" stroke="black" points="75.06,-217 75.06,-286 202.06,-286 202.06,-217 75.06,-217"/>
<text text-anchor="middle" x="138.56" y="-275.6" font-family="Bitstream Vera Sans" font-size="8.00">Train</text>
<polyline fill="none" stroke="black" points="75.06,-269 202.06,-269 "/>
<text text-anchor="start" x="83.06" y="-258.6" font-family="Bitstream Vera Sans" font-size="8.00">+ name : String</text>
<text text-anchor="start" x="83.06" y="-249.6" font-family="Bitstream Vera Sans" font-size="8.00"> + currentLink : StationLink</text>
<text text-anchor="start" x="83.06" y="-240.6" font-family="Bitstream Vera Sans" font-size="8.00"> + linkProgress : float</text>
<polyline fill="none" stroke="black" points="75.06,-234 202.06,-234 "/>
<text text-anchor="start" x="83.06" y="-223.6" font-family="Bitstream Vera Sans" font-size="8.00">+ draw()</text>
</g>
<!-- MapObject&#45;&gt;Train -->
<g id="edge2" class="edge">
<title>MapObject:se&#45;&gt;Train</title>
<path fill="none" stroke="black" d="M129.41,-314.8C134.08,-305.94 136.62,-295.81 137.94,-286.32"/>
<polygon fill="none" stroke="black" points="125.11,-311.77 120.56,-327 133.62,-317.94 125.11,-311.77"/>
</g>
<!-- StationLink -->
<g id="node7" class="node">
<title>StationLink</title>
<polygon fill="none" stroke="black" points="98.06,-111 98.06,-171 179.06,-171 179.06,-111 98.06,-111"/>
<text text-anchor="middle" x="138.56" y="-160.6" font-family="Bitstream Vera Sans" font-size="8.00">StationLink</text>
<polyline fill="none" stroke="black" points="98.06,-154 179.06,-154 "/>
<text text-anchor="start" x="106.06" y="-143.6" font-family="Bitstream Vera Sans" font-size="8.00">+ from : Station</text>
<text text-anchor="start" x="106.06" y="-134.6" font-family="Bitstream Vera Sans" font-size="8.00"> + to : Station</text>
<polyline fill="none" stroke="black" points="98.06,-128 179.06,-128 "/>
<text text-anchor="start" x="106.06" y="-117.6" font-family="Bitstream Vera Sans" font-size="8.00">+ draw()</text>
</g>
<!-- MapObject&#45;&gt;StationLink -->
<g id="edge3" class="edge">
<title>MapObject:s&#45;&gt;StationLink</title>
<path fill="none" stroke="black" d="M71.2,-311.75C69.25,-305.77 66.62,-300.67 65.56,-291 61.73,-256.1 51.79,-244.3 65.56,-212 72.45,-195.85 85.1,-181.64 97.95,-170.31"/>
<polygon fill="none" stroke="black" points="66.08,-312.98 73.56,-327 76.45,-311.37 66.08,-312.98"/>
</g>
<!-- Station&#45;&gt;Station -->
<g id="edge4" class="edge">
<title>Station&#45;&gt;Station</title>
<path fill="none" stroke="black" d="M235.46,-51.4C246.16,-48.29 253.06,-42.82 253.06,-35 253.06,-29.26 249.34,-24.78 243.12,-21.58"/>
<polygon fill="black" stroke="black" points="235.46,-18.6 244.22,-18.14 239.19,-20.05 242.92,-21.5 242.92,-21.5 242.92,-21.5 239.19,-20.05 241.61,-24.85 235.46,-18.6 235.46,-18.6"/>
<text text-anchor="middle" x="250.43" y="-15.72" font-family="Bitstream Vera Sans" font-size="8.00">0..*</text>
<text text-anchor="middle" x="246.43" y="-39.27" font-family="Bitstream Vera Sans" font-size="8.00">1</text>
</g>
<!-- Train&#45;&gt;StationLink -->
<g id="edge12" class="edge">
<title>Train&#45;&gt;StationLink</title>
<path fill="none" stroke="black" d="M138.56,-216.76C138.56,-204.94 138.56,-191.58 138.56,-179.47"/>
<polygon fill="black" stroke="black" points="138.56,-171.31 142.16,-179.31 138.56,-175.31 138.56,-179.31 138.56,-179.31 138.56,-179.31 138.56,-175.31 134.96,-179.31 138.56,-171.31 138.56,-171.31"/>
<text text-anchor="middle" x="144.9" y="-183.01" font-family="Bitstream Vera Sans" font-size="8.00">1</text>
<text text-anchor="middle" x="132.22" y="-201.27" font-family="Bitstream Vera Sans" font-size="8.00">1</text>
</g>
<!-- StationLink&#45;&gt;Station -->
<g id="edge10" class="edge">
<title>StationLink&#45;&gt;Station</title>
<path fill="none" stroke="black" d="M138.56,-110.75C138.56,-100.6 138.56,-89.01 138.56,-78.04"/>
<polygon fill="black" stroke="black" points="138.56,-69.8 142.16,-77.8 138.56,-73.8 138.56,-77.8 138.56,-77.8 138.56,-77.8 138.56,-73.8 134.96,-77.8 138.56,-69.8 138.56,-69.8"/>
<text text-anchor="middle" x="144.9" y="-81.49" font-family="Bitstream Vera Sans" font-size="8.00">2</text>
<text text-anchor="middle" x="132.22" y="-95.26" font-family="Bitstream Vera Sans" font-size="8.00">1</text>
</g>
<!-- TrainRoute -->
<g id="node9" class="node">
<title>TrainRoute</title>
<polygon fill="none" stroke="black" points="471.06,-212.5 471.06,-290.5 666.06,-290.5 666.06,-212.5 471.06,-212.5"/>
<text text-anchor="middle" x="568.56" y="-280.1" font-family="Bitstream Vera Sans" font-size="8.00">TrainRoute</text>
<polyline fill="none" stroke="black" points="471.06,-273.5 666.06,-273.5 "/>
<text text-anchor="start" x="479.06" y="-263.1" font-family="Bitstream Vera Sans" font-size="8.00">+ trainName : String</text>
<text text-anchor="start" x="479.06" y="-254.1" font-family="Bitstream Vera Sans" font-size="8.00"> + stops : ArrayList&lt;RouteStop&gt;</text>
<text text-anchor="start" x="479.06" y="-245.1" font-family="Bitstream Vera Sans" font-size="8.00"> + costPerKilometer : float</text>
<polyline fill="none" stroke="black" points="471.06,-238.5 666.06,-238.5 "/>
<text text-anchor="start" x="479.06" y="-228.1" font-family="Bitstream Vera Sans" font-size="8.00">+ getNextStop(RouteTime currentTime)</text>
<text text-anchor="start" x="479.06" y="-219.1" font-family="Bitstream Vera Sans" font-size="8.00"> + getPreviousStop(RouteTime currentTime)</text>
</g>
<!-- RouteManager&#45;&gt;TrainRoute -->
<g id="edge6" class="edge">
<title>RouteManager&#45;&gt;TrainRoute</title>
<path fill="none" stroke="black" d="M577.91,-327.25C576.8,-318.43 575.56,-308.52 574.36,-298.87"/>
<polygon fill="black" stroke="black" points="573.36,-290.85 577.92,-298.34 573.85,-294.82 574.35,-298.79 574.35,-298.79 574.35,-298.79 573.85,-294.82 570.78,-299.23 573.36,-290.85 573.36,-290.85"/>
<text text-anchor="middle" x="581.33" y="-301.65" font-family="Bitstream Vera Sans" font-size="8.00">0..*</text>
<text text-anchor="middle" x="569.93" y="-312.65" font-family="Bitstream Vera Sans" font-size="8.00">1</text>
</g>
<!-- RouteStop -->
<g id="node10" class="node">
<title>RouteStop</title>
<polygon fill="none" stroke="black" points="489.06,-106.5 489.06,-175.5 614.06,-175.5 614.06,-106.5 489.06,-106.5"/>
<text text-anchor="middle" x="551.56" y="-165.1" font-family="Bitstream Vera Sans" font-size="8.00">RouteStop</text>
<polyline fill="none" stroke="black" points="489.06,-158.5 614.06,-158.5 "/>
<text text-anchor="start" x="497.06" y="-148.1" font-family="Bitstream Vera Sans" font-size="8.00">+ city : Station</text>
<text text-anchor="start" x="497.06" y="-139.1" font-family="Bitstream Vera Sans" font-size="8.00"> + arriveTime : RouteTime</text>
<text text-anchor="start" x="497.06" y="-130.1" font-family="Bitstream Vera Sans" font-size="8.00"> + departTime : RouteTime</text>
<polyline fill="none" stroke="black" points="489.06,-123.5 614.06,-123.5 "/>
<text text-anchor="middle" x="551.56" y="-113.1" font-family="Bitstream Vera Sans" font-size="8.00"> </text>
</g>
<!-- TrainRoute&#45;&gt;RouteStop -->
<g id="edge7" class="edge">
<title>TrainRoute&#45;&gt;RouteStop</title>
<path fill="none" stroke="black" d="M562.57,-212.25C561.12,-203 559.56,-193.07 558.09,-183.67"/>
<polygon fill="black" stroke="black" points="556.82,-175.58 561.62,-182.93 557.44,-179.53 558.06,-183.48 558.06,-183.48 558.06,-183.48 557.44,-179.53 554.51,-184.04 556.82,-175.58 556.82,-175.58"/>
<text text-anchor="middle" x="565.19" y="-186.13" font-family="Bitstream Vera Sans" font-size="8.00">0..*</text>
<text text-anchor="middle" x="554.2" y="-197.9" font-family="Bitstream Vera Sans" font-size="8.00">1</text>
</g>
<!-- RouteStop&#45;&gt;RouteTime -->
<g id="edge11" class="edge">
<title>RouteStop&#45;&gt;RouteTime</title>
<path fill="none" stroke="black" d="M526.89,-106.23C519.92,-96.69 512.26,-86.21 505.03,-76.33"/>
<polygon fill="black" stroke="black" points="500.11,-69.6 507.74,-73.93 502.47,-72.83 504.83,-76.06 504.83,-76.06 504.83,-76.06 502.47,-72.83 501.93,-78.18 500.11,-69.6 500.11,-69.6"/>
<text text-anchor="middle" x="513.25" y="-74.93" font-family="Bitstream Vera Sans" font-size="8.00">2</text>
<text text-anchor="middle" x="513.75" y="-97.1" font-family="Bitstream Vera Sans" font-size="8.00">1</text>
</g>
<!-- StationDatabase&#45;&gt;Station -->
<g id="edge8" class="edge">
<title>StationDatabase&#45;&gt;Station</title>
<path fill="none" stroke="black" d="M287.87,-221.12C257.5,-183.47 204.73,-118.04 170.74,-75.9"/>
<polygon fill="black" stroke="black" points="165.66,-69.6 173.49,-73.57 168.18,-72.72 170.69,-75.83 170.69,-75.83 170.69,-75.83 168.18,-72.72 167.88,-78.09 165.66,-69.6 165.66,-69.6"/>
<text text-anchor="middle" x="179.13" y="-74.31" font-family="Bitstream Vera Sans" font-size="8.00">0..*</text>
<text text-anchor="middle" x="274.4" y="-212.62" font-family="Bitstream Vera Sans" font-size="8.00">1</text>
</g>
<!-- StationDatabase&#45;&gt;StationLink -->
<g id="edge9" class="edge">
<title>StationDatabase&#45;&gt;StationLink</title>
<path fill="none" stroke="black" d="M265.2,-221.42C240.68,-206.05 210.64,-187.2 185.97,-171.73"/>
<polygon fill="black" stroke="black" points="179.16,-167.46 187.85,-168.66 182.55,-169.59 185.94,-171.71 185.94,-171.71 185.94,-171.71 182.55,-169.59 184.02,-174.76 179.16,-167.46 179.16,-167.46"/>
<text text-anchor="middle" x="194.04" y="-167.41" font-family="Bitstream Vera Sans" font-size="8.00">0..*</text>
<text text-anchor="middle" x="250.32" y="-217.67" font-family="Bitstream Vera Sans" font-size="8.00">1</text>
</g>
</g>
</svg>
